<svg width="27" height="23" viewBox="0 0 27 23" fill="none" xmlns="http://www.w3.org/2000/svg">
<path d="M18.3211 7.7067C18.3211 7.7067 19.1727 4.19033 18.3211 2.99818C17.4696 1.80802 17.131 1.01459 15.2586 0.446559C13.3862 -0.121468 14.0684 -0.00826356 12.707 0.0498416C11.3445 0.107947 10.2105 0.844279 10.2105 1.242C10.2105 1.242 9.35891 1.2981 9.0203 1.63872C8.67969 1.97933 8.11266 3.5662 8.11266 3.96292C8.11266 4.35964 8.39617 7.02847 8.67969 7.59449L8.34207 7.7087C8.05756 10.9977 9.47412 11.3954 9.47412 11.3954C9.98505 14.4589 10.496 13.1546 10.496 13.948C10.496 14.7414 9.98505 14.4589 9.98505 14.4589C9.98505 14.4589 9.53223 15.7062 8.39818 16.16C7.26412 16.6128 0.968732 19.0512 0.456806 19.5621C-0.0561227 20.0731 0.00198249 22.4554 0.00198249 22.4554H26.9978C26.9978 22.4554 27.0579 20.0741 26.545 19.5621C26.0341 19.0512 19.7377 16.6128 18.6036 16.16C17.4696 15.7062 17.0168 14.4589 17.0168 14.4589C17.0168 14.4589 16.5058 14.7414 16.5058 13.948C16.5058 13.1546 17.0168 14.4589 17.5277 11.3954C17.5277 11.3954 18.9433 10.9977 18.6597 7.7087H18.3191L18.3211 7.7067Z" fill="white"/>
</svg>
