<svg width="24" height="19" viewBox="0 0 24 19" fill="none" xmlns="http://www.w3.org/2000/svg">
<path d="M10.3468 13.5931C10.7487 13.995 11.2733 14.1795 11.9206 14.1466C12.5697 14.1128 13.0485 13.8838 13.357 13.4597L20.3656 3.69435L10.5482 10.6509C10.1072 10.9479 9.8587 11.408 9.80268 12.0313C9.74756 12.6546 9.92938 13.1756 10.3482 13.5944L10.3468 13.5931ZM2.80077 18.6718C2.55181 18.6718 2.32419 18.6091 2.11791 18.4838C1.91163 18.3575 1.73736 18.1859 1.5951 17.9689C1.06874 17.0611 0.671295 16.1013 0.402777 15.0895C0.134259 14.0785 0 13.0498 0 12.0033C0 10.3468 0.315642 8.7882 0.946926 7.32735C1.57821 5.8665 2.43489 4.59638 3.51696 3.51697C4.59726 2.43489 5.86738 1.57821 7.32734 0.946927C8.78818 0.315642 10.3468 0 12.0033 0C13.6553 0 15.2046 0.310308 16.6512 0.930923C18.0978 1.55154 19.3657 2.39666 20.4549 3.46629C21.5441 4.53591 22.4057 5.78826 23.0396 7.22332C23.6736 8.65927 23.9937 10.2028 23.9999 11.8539C24.0043 12.9565 23.8736 14.0279 23.6078 15.0681C23.3411 16.1058 22.9396 17.1069 22.4035 18.0716C22.279 18.2886 22.1092 18.4429 21.894 18.5344C21.6797 18.626 21.4476 18.6718 21.1978 18.6718H2.80077Z" fill="white"/>
</svg>
