<svg width="28" height="28" viewBox="0 0 28 28" fill="none" xmlns="http://www.w3.org/2000/svg">
<path d="M27.121 14.879C26.8443 14.6007 26.5154 14.3798 26.1532 14.229C25.7909 14.0781 25.4024 14.0003 25.01 14H25C24.6059 13.9988 24.2154 14.0759 23.8514 14.2268C23.4873 14.3777 23.1567 14.5994 22.879 14.879L17.978 19.78C17.924 19.0264 17.587 18.321 17.0347 17.8054C16.4824 17.2898 15.7556 17.0021 15 17H8C6.67441 17.0016 5.40356 17.5289 4.46622 18.4662C3.52888 19.4036 3.00159 20.6744 3 22V22.667L0 26.663L1.6 27.863L5 23.333V22C5.00079 21.2046 5.31712 20.442 5.87956 19.8796C6.44199 19.3171 7.20459 19.0008 8 19H15C15.2652 19 15.5196 19.1054 15.7071 19.2929C15.8946 19.4804 16 19.7348 16 20C16 20.2652 15.8946 20.5196 15.7071 20.7071C15.5196 20.8946 15.2652 21 15 21H11V23H15.929C16.4545 23.0014 16.975 22.8986 17.4604 22.6974C17.9459 22.4962 18.3866 22.2007 18.757 21.828L24.293 16.293C24.3856 16.1998 24.4958 16.1259 24.6171 16.0757C24.7385 16.0254 24.8686 15.9996 25 16H25.003C25.2005 16.0006 25.3934 16.0597 25.5573 16.1698C25.7213 16.28 25.849 16.4361 25.9243 16.6187C25.9996 16.8013 26.0191 17.0021 25.9804 17.1958C25.9418 17.3894 25.8466 17.5673 25.707 17.707L18.293 25.121C18.015 25.4006 17.6843 25.6223 17.3201 25.7732C16.9558 25.924 16.5653 26.0011 16.171 26H9V28H16.171C16.828 28.0018 17.4788 27.8732 18.0858 27.6218C18.6927 27.3703 19.2438 27.0009 19.707 26.535L27.121 19.121C27.3996 18.8425 27.6206 18.5118 27.7714 18.1479C27.9222 17.784 27.9998 17.3939 27.9998 17C27.9998 16.6061 27.9222 16.216 27.7714 15.8521C27.6206 15.4882 27.3996 15.1575 27.121 14.879ZM19.586 6.586L16 10V0H14V10L10.414 6.586L9 8L15 14L21 8L19.586 6.586Z" fill="white"/>
</svg>
