<svg width="21" height="25" viewBox="0 0 21 25" fill="none" xmlns="http://www.w3.org/2000/svg">
<path d="M11.0804 5.38657C13.0417 5.38657 14.0223 6.13241 14.3814 7.32022C14.5609 7.91412 15.1548 8.28704 15.7764 8.28704H15.8592C16.8261 8.28704 17.5443 7.30641 17.199 6.40864C16.5913 4.82029 15.2515 3.5358 13.1521 3.02477V2.07176C13.1521 0.925386 12.2268 0 11.0804 0C9.93401 0 9.00863 0.925386 9.00863 2.07176V2.98333C8.46997 3.09383 7.97274 3.27338 7.48933 3.48056L9.57491 5.56613C10.0169 5.45563 10.5279 5.38657 11.0804 5.38657ZM0.403916 2.2375C0.275876 2.36528 0.174295 2.51705 0.104985 2.68414C0.035676 2.85122 0 3.03034 0 3.21123C0 3.39212 0.035676 3.57123 0.104985 3.73832C0.174295 3.9054 0.275876 4.05718 0.403916 4.18495L4.17452 7.96937C4.17452 10.8422 6.32915 12.4167 9.57491 13.3698L14.4228 18.2177C13.9532 18.8944 12.9726 19.4745 11.0804 19.4745C8.80145 19.4745 7.62745 18.6596 7.17167 17.4995C6.96449 16.9608 6.49489 16.5741 5.92861 16.5741H5.69381C4.69937 16.5741 3.98116 17.5961 4.3817 18.4939C5.19659 20.3309 6.99211 21.422 9.02244 21.864V22.7894C9.02244 23.9357 9.94782 24.8611 11.0942 24.8611C12.2406 24.8611 13.166 23.9357 13.166 22.7894V21.8916C14.4919 21.643 15.6935 21.1319 16.5636 20.3447L18.6492 22.4303C18.7771 22.5581 18.9289 22.6596 19.096 22.7288C19.263 22.798 19.4421 22.8336 19.6229 22.8336C19.8038 22.8336 19.9828 22.798 20.1499 22.7288C20.317 22.6596 20.4688 22.5581 20.5967 22.4303C20.7245 22.3024 20.826 22.1506 20.8952 21.9835C20.9644 21.8164 21 21.6374 21 21.4565C21 21.2757 20.9644 21.0966 20.8952 20.9295C20.826 20.7625 20.7245 20.6107 20.5967 20.4828L2.35137 2.2375C2.22359 2.10946 2.07182 2.00788 1.90473 1.93857C1.73765 1.86926 1.55853 1.83358 1.37764 1.83358C1.19675 1.83358 1.01764 1.86926 0.850554 1.93857C0.683469 2.00788 0.531694 2.10946 0.403916 2.2375Z" fill="white"/>
</svg>
